<svg xmlns="http://www.w3.org/2000/svg" xmlns:xlink="http://www.w3.org/1999/xlink" xmlns:sketch="http://www.bohemiancoding.com/sketch/ns" viewBox="0 0 30 37.5" version="1.1" x="0px" y="0px"><title>gesture_004-tap_hold-clock-hand-touch-finger</title><desc>Created with Sketch.</desc><g stroke="none" stroke-width="1" fill="none" fill-rule="evenodd" sketch:type="MSPage"><g sketch:type="MSArtboardGroup" transform="translate(-180.000000, -45.000000)" fill="#000000"><g sketch:type="MSLayerGroup" transform="translate(186.000000, 47.000000)"><path d="M13,12 C12.5883412,12 12.2057309,12.1243714 11.8876948,12.3375886 C11.6143422,11.5585717 10.8724018,11 10,11 C9.63571286,11 9.29417337,11.0973943 9,11.2675644 L9,7 C9,5.8954305 8.1045695,5 7,5 C5.8954305,5 5,5.8954305 5,7 L5,16.7589674 L3.99035159,15.010205 C3.43806684,14.0536198 2.21488603,13.7258695 1.25830078,14.2781542 C0.301715534,14.830439 -0.0260347761,16.0536198 0.526249974,17.010205 C0.653455605,17.2305316 1.14326493,18.0780224 1.24505754,18.2552163 C2.02343745,19.6101685 2.29284849,21.9061799 3.07469032,23.262891 C4.16564949,25.1560059 5.99186015,27.6500926 6.09435421,27.7923209 C6.25579856,28.0163529 6.56828888,28.0670902 6.79232087,27.9056458 C7.01635285,27.7442014 7.06709015,27.4317111 6.90564579,27.2076791 C6.80502296,27.0680475 4.8366617,24.3283258 3.93878344,22.7602729 C3.32897957,21.6953125 2.96539314,19.2213135 2.11108295,17.7552163 C2.00835832,17.5789287 1.51948102,16.7305317 1.39227538,16.510205 C1.116133,16.0319124 1.28000816,15.420322 1.75830078,15.1441796 C2.2365934,14.8680372 2.84818381,15.0319124 3.12432619,15.510205 L4.99533647,18.7508899 C5.17040999,19.1176758 5.99999984,19.0991211 6,18.5 L6,7 C6,6.44771525 6.44771525,6 7,6 C7.55228475,6 8,6.44771525 8,7 L8,15.5 C8,15.7761424 8.22385763,16 8.5,16 C8.77614237,16 9,15.7761424 9,15.5 L9,13 C9,12.4477153 9.44771525,12 10,12 C10.5522847,12 11,12.4477153 11,13 L11,15.5 C11,15.7761424 11.2238576,16 11.5,16 C11.7761424,16 12,15.7761424 12,15.5 L12,14 C12,13.4477153 12.4477153,13 13,13 C13.5522847,13 14,13.4477153 14,14 L14,16.5 C14,16.7761424 14.2238576,17 14.5,17 C14.7761424,17 15,16.7761424 15,16.5 L15,15 C15,14.4477153 15.4477153,14 16,14 C16.5522847,14 17,14.4477153 17,15 L17,18.5 C16.9999998,21.7747192 14.9999998,24.8953247 15,27.5 C15,27.7761424 15.2238576,28 15.5,28 C15.7761424,28 16,27.7761424 16,27.5 C15.9999998,25.2555542 17.9999998,21.7874146 18,18.5 L18,15 C18,13.8954305 17.1045695,13 16,13 C15.5883412,13 15.2057309,13.1243714 14.8876948,13.3375886 C14.6143422,12.5585717 13.8724018,12 13,12 Z" sketch:type="MSShapeGroup"/><path d="M21,4.5 C21,2.01471863 18.9852814,0 16.5,0 C14.0147186,0 12,2.01471863 12,4.5 C12,6.98528137 14.0147186,9 16.5,9 C18.9852814,9 21,6.98528137 21,4.5 Z M13,4.5 C13,2.56700338 14.5670034,1 16.5,1 C18.4329966,1 20,2.56700338 20,4.5 C20,6.43299662 18.4329966,8 16.5,8 C14.5670034,8 13,6.43299662 13,4.5 Z M16,4.5 C16,4.77614237 16.2238576,5 16.5,5 L18,5 C18.2761424,5 18.5,4.77614237 18.5,4.5 C18.5,4.22385763 18.2761424,4 18,4 L17,4 L17,2.5 C17,2.22385763 16.7761424,2 16.5,2 C16.2238576,2 16,2.22385763 16,2.5 L16,4.5 Z" sketch:type="MSShapeGroup"/><path d="M4,9.6458244 C3.37763659,8.94069119 3,8.01444647 3,7 C3,4.790861 4.790861,3 7,3 C9.209139,3 11,4.790861 11,7 C11,8.01444647 10.6223634,8.94069119 10,9.6458244 L10,7 C10,5.34314575 8.65685425,4 7,4 C5.34314575,4 4,5.34314575 4,7 L4,9.6458244 Z" sketch:type="MSShapeGroup"/></g></g></g><text x="0" y="45" fill="#000000" font-size="5px" font-weight="bold" font-family="'Helvetica Neue', Helvetica, Arial-Unicode, Arial, Sans-serif">Created by Pham Thi Dieu Linh</text><text x="0" y="50" fill="#000000" font-size="5px" font-weight="bold" font-family="'Helvetica Neue', Helvetica, Arial-Unicode, Arial, Sans-serif">from the Noun Project</text></svg>