<?xml version="1.0" encoding="UTF-8" standalone="no"?>
<!-- Generator: Adobe Illustrator 16.0.0, SVG Export Plug-In . SVG Version: 6.00 Build 0)  -->

<svg
   version="1.1"
   id="Layer_1"
   x="0px"
   y="0px"
   width="66px"
   height="66px"
   viewBox="0 0 66 66"
   enable-background="new 0 0 66 66"
   xml:space="preserve"
   sodipodi:docname="remote.svg"
   inkscape:version="1.1 (c4e8f9ed74, 2021-05-24)"
   xmlns:inkscape="http://www.inkscape.org/namespaces/inkscape"
   xmlns:sodipodi="http://sodipodi.sourceforge.net/DTD/sodipodi-0.dtd"
   xmlns:xlink="http://www.w3.org/1999/xlink"
   xmlns="http://www.w3.org/2000/svg"
   xmlns:svg="http://www.w3.org/2000/svg"><defs
   id="defs117" /><sodipodi:namedview
   id="namedview115"
   pagecolor="#ffffff"
   bordercolor="#666666"
   borderopacity="1.0"
   inkscape:pageshadow="2"
   inkscape:pageopacity="0.0"
   inkscape:pagecheckerboard="0"
   showgrid="false"
   inkscape:zoom="4.521198"
   inkscape:cx="8.5154421"
   inkscape:cy="23.113343"
   inkscape:window-width="1866"
   inkscape:window-height="1047"
   inkscape:window-x="0"
   inkscape:window-y="0"
   inkscape:window-maximized="1"
   inkscape:current-layer="g2398" />
<g
   id="g112"
   transform="rotate(45,32.750156,33.645781)">
	
	<g
   id="g2398"><path
     d="m 45,59.663 c 0,2.509 -2.034,4.543 -4.543,4.543 H 26.543 C 24.034,64.206 22,62.172 22,59.663 V 22.749 c 0,-2.509 2.034,-4.543 4.543,-4.543 h 13.914 c 2.509,0 4.543,2.034 4.543,4.543 z"
     id="path2"
     style="fill:#505050;fill-opacity:1" /><path
     d="m 22,22.749 c 0,-2.51 1.677,-4.543 4.187,-4.543 h 13.627 c 3.289,0 5.187,2.033 5.187,4.543 v 36.914 c 0,2.51 -2.034,4.543 -4.543,4.543"
     id="path4"
     style="fill:#404040" /><g
     id="g26">
		<g
   id="g12">
			<path
   d="m 33.001,1.794 v 0 c -6.533,0 -12.674,2.545 -17.293,7.16 l 2.83,2.832 C 22.4,7.923 27.536,5.798 33.001,5.798 c 5.462,0 10.599,2.125 14.461,5.988 l 2.83,-2.83 C 45.675,4.339 39.534,1.794 33.001,1.794 Z"
   id="path6"
   style="fill:#bdcdd4" />
			<g
   id="g10">
				<path
   d="m 33,9.144 c -4.391,0 -8.521,1.711 -11.625,4.814 l 2.828,2.83 c 2.351,-2.348 5.474,-3.643 8.798,-3.641 3.322,0 6.447,1.293 8.795,3.643 l 2.83,-2.832 C 41.522,10.855 37.393,9.144 33,9.144 Z"
   id="path8" />
			</g>
		</g>
		<g
   id="g24">
			<g
   id="g16">
				<path
   d="m 33.001,5.798 c 5.462,0 10.599,2.125 14.461,5.988 l 2.83,-2.83 C 45.675,4.339 39.534,1.794 33.001,1.794 H 33"
   id="path14"
   style="fill:#9eabb0" />
			</g>
			<path
   d="m 33,9.144 c -4.391,0 -8.521,1.711 -11.625,4.814 l 2.828,2.83 c 2.351,-2.348 5.474,-3.643 8.798,-3.641 3.322,0 6.447,1.293 8.795,3.643 l 2.83,-2.832 C 41.522,10.855 37.393,9.144 33,9.144 Z"
   id="path18"
   style="fill:#bdcdd4" />
			<g
   id="g22">
				<path
   d="m 33.001,13.148 c 3.322,0 6.447,1.293 8.795,3.643 l 2.83,-2.832 C 41.522,10.855 37.393,9.145 33.001,9.145 H 33"
   id="path20"
   style="fill:#9eabb0" />
			</g>
		</g>
	</g><g
     id="g409"
     transform="translate(-3.732)"><g
       id="g32">
		<path
   d="m 41.078,24.207 c 0,1.189 -0.963,1.999 -2.153,1.999 H 35.54 c -1.188,0 -2.153,-0.81 -2.153,-1.999 v 0 c 0,-1.189 0.965,-2.001 2.153,-2.001 h 3.385 c 1.19,0 2.153,0.811 2.153,2.001 z"
   id="path28"
   style="fill:#ff4141" />
		<path
   d="m 41.078,24.138 v 0 c 0,1.189 -0.963,2.068 -2.153,2.068 H 35.54 c -1.188,0 -2.153,-0.921 -2.153,-2.11 v 0"
   id="path30"
   style="fill:#dc0000" />
	</g></g><g
     id="g52"
     transform="translate(0.50025014)">
		<g
   id="g38">
			<circle
   cx="26.497"
   cy="30.902"
   r="2.184"
   id="circle34"
   style="fill:#6699ff;fill-opacity:1" />
			<path
   d="m 28.042,29.357 c 0.853,0.854 0.853,2.236 0,3.09 -0.854,0.852 -2.236,0.852 -3.09,0"
   id="path36"
   style="fill:#3366cc;fill-opacity:1" />
		</g>
		
		
	<use
   x="0"
   y="0"
   xlink:href="#g38"
   id="use880"
   transform="translate(6.5028751)"
   width="100%"
   height="100%" /><use
   x="0"
   y="0"
   xlink:href="#g38"
   id="use962"
   width="100%"
   height="100%"
   transform="translate(13.005874)" /></g><g
     id="g2415"
     transform="translate(0.31329755)"><g
       id="g98">
		<path
   d="m 30,59.243 c 0,0.532 -0.432,0.963 -0.964,0.963 H 25.964 C 25.432,60.206 25,59.775 25,59.243 v -8.074 c 0,-0.532 0.432,-0.963 0.964,-0.963 h 3.072 c 0.532,0 0.964,0.431 0.964,0.963 z"
   id="path94"
   style="fill:#3366cc" />
		<path
   d="m 29.036,50.206 c 0.532,0 0.964,0.432 0.964,0.963 v 8.074 c 0,0.531 -0.432,0.963 -0.964,0.963 H 25.964 C 25.432,60.206 25,59.774 25,59.243"
   id="path96"
   style="fill:#003399" />
	</g><g
       id="g2403"
       transform="translate(-6.3127975,0.5)"><path
         id="path106"
         d="M 19.449219 46.09375 C 19.321232 46.09375 19.193284 46.142654 19.095703 46.240234 C 18.900542 46.435396 18.900542 46.752104 19.095703 46.947266 L 20.509766 48.361328 C 20.704927 48.55649 21.021635 48.55649 21.216797 48.361328 C 21.412665 48.16546 21.411958 47.849458 21.216797 47.654297 L 19.802734 46.240234 C 19.705154 46.142654 19.577205 46.09375 19.449219 46.09375 z M 17.328125 48.214844 C 17.200139 48.214844 17.07219 48.263747 16.974609 48.361328 C 16.779448 48.55649 16.779448 48.873198 16.974609 49.068359 L 18.388672 50.482422 C 18.583833 50.677583 18.900542 50.677583 19.095703 50.482422 C 19.291572 50.286553 19.290865 49.970552 19.095703 49.775391 L 17.681641 48.361328 C 17.58406 48.263747 17.456111 48.214844 17.328125 48.214844 z M 15.207031 50.335938 C 15.079045 50.335938 14.951096 50.384841 14.853516 50.482422 C 14.658354 50.677583 14.658354 50.994292 14.853516 51.189453 L 16.267578 52.603516 C 16.46274 52.798677 16.779448 52.798677 16.974609 52.603516 C 17.170478 52.407647 17.169771 52.091646 16.974609 51.896484 L 15.560547 50.482422 C 15.462966 50.384841 15.335018 50.335938 15.207031 50.335938 z "
         transform="rotate(-45,35.146353,26.153744)" /></g><use
       x="0"
       y="0"
       xlink:href="#g98"
       id="use1739"
       transform="translate(11.374405)"
       width="100%"
       height="100%" /></g><use
     x="0"
     y="0"
     xlink:href="#g52"
     id="use1044"
     transform="translate(0,7.5)"
     width="100%"
     height="100%" /><use
     x="0"
     y="0"
     xlink:href="#g52"
     id="use1126"
     transform="translate(0,15)"
     width="100%"
     height="100%" /></g>
</g>
</svg>
